<svg width="27" height="26" viewBox="0 0 27 26" fill="none" xmlns="http://www.w3.org/2000/svg">
<path d="M23.3848 9.19495H21.8548V16.805H23.3848V9.19495Z" fill="#000001"/>
<path d="M21.8548 16.805H20.3348V18.3349H21.8548V16.805Z" fill="#000001"/>
<path d="M21.8548 7.66495H20.3348V9.19495H21.8548V7.66495Z" fill="#000001"/>
<path d="M20.3348 18.3349H18.8148V19.8549H20.3348V18.3349Z" fill="#000001"/>
<path d="M20.3348 6.14495H18.8148V7.66495H20.3348V6.14495Z" fill="#000001"/>
<path d="M18.8148 19.8549H17.2848V21.385H18.8148V19.8549Z" fill="#000001"/>
<path d="M18.8148 4.61495H17.2848V6.14495H18.8148V4.61495Z" fill="#000001"/>
<path d="M17.2848 21.385L9.66481 21.385V22.905H17.2848V21.385Z" fill="#000001"/>
<path d="M17.9999 24H8.9999V26H17.9999V24Z" fill="#000001"/>
<path d="M18 0H9V2H18V0Z" fill="#000001"/>
<path d="M17.2848 3.09495H9.66481V4.61495H17.2848V3.09495Z" fill="#000001"/>
<path d="M9.6648 19.8549H8.1448V21.385L9.66481 21.385L9.6648 19.8549Z" fill="#000001"/>
<path d="M9.66481 4.61495H8.1448V6.14495H9.6648L9.66481 4.61495Z" fill="#000001"/>
<path d="M8.1448 18.3349H6.6248V19.8549H8.1448V18.3349Z" fill="#000001"/>
<path d="M8.1448 6.14495H6.6248V7.66495H8.1448V6.14495Z" fill="#000001"/>
<path d="M6.6248 16.805H5.0948V18.3349H6.6248V16.805Z" fill="#000001"/>
<path d="M6.6248 7.66495H5.0948V9.19495H6.6248V7.66495Z" fill="#000001"/>
<path d="M5.0948 9.19495H3.5748V16.805H5.0948V9.19495Z" fill="#000001"/>
<path d="M9.66481 22.905L6.6249 22.905V24.425H9.6649L9.66481 22.905Z" fill="#000001"/>
<path d="M9.6649 1.575H6.6249V3.095L9.66481 3.09495L9.6649 1.575Z" fill="#000001"/>
<path d="M6.6249 21.385H5.0949V22.905H6.6249V21.385Z" fill="#000001"/>
<path d="M6.6249 3.095H5.0949V4.615H6.6249V3.095Z" fill="#000001"/>
<path d="M5.0949 19.855H3.5749V21.385L5.0949 21.385V19.855Z" fill="#000001"/>
<path d="M5.0949 4.615H3.5749V6.145H5.0949V4.615Z" fill="#000001"/>
<path d="M3.5748 16.805L2.0449 16.805V19.855H3.5749L3.5748 16.805Z" fill="#000001"/>
<path d="M3.5749 6.145H2.0449V9.195L3.5748 9.19495L3.5749 6.145Z" fill="#000001"/>
<path d="M2.0449 9.195H0.524902V16.805H2.0449V9.195Z" fill="#000001"/>
<path d="M16.9999 22.905H20.0399V24.425H16.9999V22.905Z" fill="#000001"/>
<path d="M16.9999 1.57495H20.0399V3.09495H16.9999V1.57495Z" fill="#000001"/>
<path d="M20.0399 21.385H21.5699V22.905H20.0399V21.385Z" fill="#000001"/>
<path d="M20.0399 3.09495H21.5699V4.61495H20.0399V3.09495Z" fill="#000001"/>
<path d="M21.5699 19.8549H23.0899V21.385L21.5699 21.385V19.8549Z" fill="#000001"/>
<path d="M21.5699 4.61495H23.0899V6.14495H21.5699V4.61495Z" fill="#000001"/>
<path d="M23.0899 16.805H24.6199V19.8549H23.0899V16.805Z" fill="#000001"/>
<path d="M23.0899 6.14495H24.6199V9.19495H23.0899V6.14495Z" fill="#000001"/>
<path d="M24.6199 9.19495H26.1399V16.805H24.6199V9.19495Z" fill="#000001"/>
</svg>
