<svg width="22" height="22" viewBox="0 0 22 22" fill="none" xmlns="http://www.w3.org/2000/svg">
<g clip-path="url(#clip0_420_1489)">
<path d="M22 20.4256H19.9031V21.4775H22V20.4256Z" fill="#050523"/>
<path d="M20.955 17.2837H19.9031V18.3356H20.955V17.2837Z" fill="#050523"/>
<path d="M19.9031 19.3806H18.8581V20.4256H19.9031V19.3806Z" fill="#050523"/>
<path d="M19.9031 17.2837V16.2387H18.8581V8.90309H17.8062V13.0968H16.7612V14.1418H17.8062V19.3806H18.8581V17.2837H19.9031Z" fill="#050523"/>
<path d="M17.8062 7.85809H16.7612V8.90309H17.8062V7.85809Z" fill="#050523"/>
<path d="M16.7612 9.95496H15.7163V12.045H16.7612V9.95496Z" fill="#050523"/>
<path d="M16.7612 6.80621H14.6644V7.85809H16.7612V6.80621Z" fill="#050523"/>
<path d="M16.7612 14.1418H5.23875V15.1868H16.7612V14.1418Z" fill="#050523"/>
<path d="M15.7163 8.90309H14.6644V9.95496H15.7163V8.90309Z" fill="#050523"/>
<path d="M15.7163 12.045L6.28375 12.045V13.0968H15.7162L15.7163 12.045Z" fill="#050523"/>
<path d="M13.6194 20.4256H12.5675V21.4775H13.6194V20.4256Z" fill="#050523"/>
<path d="M13.6194 17.2837H12.5675V19.3806H13.6194V17.2837Z" fill="#050523"/>
<path d="M13.6194 9.95496H11.5225V11H13.6194V9.95496Z" fill="#050523"/>
<path d="M10.4775 16.2387H9.42562V20.4256H10.4775V16.2387Z" fill="#050523"/>
<path d="M9.42562 20.4256H8.38062V21.4775H9.42562V20.4256Z" fill="#050523"/>
<path d="M9.42562 6.80621V11H10.4775V6.80621H13.6194V5.76121H14.6644V4.71621H15.7163V3.66434H16.7612V0.522461H12.5675V1.57434H11.5225V2.61934H10.4775V3.66434H9.42562V5.76121H8.38062V6.80621H9.42562ZM11.5225 3.66434H12.5675V2.61934H13.6194V1.57434H14.6644V2.61934H13.6194V3.66434H12.5675V4.71621H11.5225V3.66434Z" fill="#050523"/>
<path d="M8.38062 8.90309H6.28375V9.95496H8.38062V8.90309Z" fill="#050523"/>
<path d="M7.33562 17.2837H6.28375V19.3806H7.33562V17.2837Z" fill="#050523"/>
<path d="M7.33563 6.80621H5.23875V7.85809H7.33563V6.80621Z" fill="#050523"/>
<path d="M6.28375 9.95496H5.23875V12.045L6.28375 12.045V9.95496Z" fill="#050523"/>
<path d="M4.18687 13.0968V8.90309H3.14188V17.2837H1.045V18.3356H3.14188V19.3806H4.18687V14.1418H5.23875V13.0968H4.18687Z" fill="#050523"/>
<path d="M5.23875 7.85809H4.18688L4.18687 8.90309H5.23875L5.23875 7.85809Z" fill="#050523"/>
<path d="M4.18688 1.57434V4.71621H5.23875V5.76121L8.38062 5.76121V3.66434H6.28375V2.61934H5.23875V1.57434H4.18688Z" fill="#050523"/>
<path d="M3.14188 19.3806H2.09687V20.4256H3.14188L3.14188 19.3806Z" fill="#050523"/>
<path d="M2.09687 20.4256H1.045V21.4775H2.09687V20.4256Z" fill="#050523"/>
<path d="M1.045 16.2387H0V17.2837H1.045V16.2387Z" fill="#050523"/>
</g>
<defs>
<clipPath id="clip0_420_1489">
<rect width="22" height="22" fill="white"/>
</clipPath>
</defs>
</svg>
