<svg width="32" height="33" viewBox="0 0 32 33" fill="none" xmlns="http://www.w3.org/2000/svg">
<path d="M30.48 1.78H28.96V0.25H27.43V1.78H25.91V3.3H24.39V4.82H25.91V6.35H27.43V7.87H28.96V6.35H30.48V4.82H32V3.3H30.48V1.78ZM28.96 4.82H27.43V3.3H28.96V4.82Z" fill="#000001"/>
<path d="M30.48 24.63H28.96V23.11H27.43V24.63H25.91V26.16H24.39V27.68H25.91V29.21H27.43V30.73H28.96V29.21H30.48V27.68H32V26.16H30.48V24.63ZM28.96 27.68H27.43V26.16H28.96V27.68Z" fill="#000001"/>
<path d="M30.48 18.54H28.96V20.06H30.48V18.54Z" fill="#000001"/>
<path d="M30.48 12.44H28.96V13.97H30.48V12.44Z" fill="#000001"/>
<path d="M24.39 20.06H22.86V21.59H24.39V20.06Z" fill="#000001"/>
<path d="M24.39 10.92H22.86V12.44H24.39V10.92Z" fill="#000001"/>
<path d="M22.86 21.59H21.34V23.11H22.86V21.59Z" fill="#000001"/>
<path d="M22.86 9.4H21.34V10.92H22.86V9.4Z" fill="#000001"/>
<path d="M21.34 29.21H19.81V30.73H21.34V29.21Z" fill="#000001"/>
<path d="M21.34 23.11H19.81V24.63H21.34V23.11Z" fill="#000001"/>
<path fill-rule="evenodd" clip-rule="evenodd" d="M9.1501 15.4901V13.9701H11V12H13.7201V9.4001H15.2401V6.3501H16.7701V9.4001H18.2901V12H21V13.9701H22.8601V15.4901H25.9101V17.0201H22.8601V18.5401H21.3401L21.34 21.59L18.2901 21.5901V23.1101H16.7701V26.0823H15.2401V23.1101H13.7201V21.5901H10.6701V18.5401H9.1501V17.0201H6.1001V15.4901L7.5 15.5L7.6201 15.4901H9.1501ZM11.8476 16.5584V15.6341H12.9681V14.436H14.6159V12.8548H15.5366V11H16.4634V12.8548H17.3841V14.436H19.0257V15.6341H20.1524V16.5584H22V17.4889H20.1524V18.4133H19.2317V20.2681H17.3841V21.1925H16.4634V23H15.5366V21.1925H14.6159V20.2681H12.7683V18.4133H11.8476V17.4889H10V16.5584L10.848 16.5645L10.9207 16.5584H11.8476Z" fill="#000001"/>
<path d="M21.34 7.87H19.81V9.4H21.34V7.87Z" fill="#000001"/>
<path d="M21.34 1.78H19.81V3.3H21.34V1.78Z" fill="#000001"/>
<path d="M13.72 29.21H12.2V30.73H13.72V29.21Z" fill="#000001"/>
<path d="M13.72 1.78H12.2V3.3H13.72V1.78Z" fill="#000001"/>
<path d="M12.2 23.11H10.67V24.63H12.2V23.11Z" fill="#000001"/>
<path d="M12.2 7.87H10.67V9.4H12.2V7.87Z" fill="#000001"/>
<path d="M10.6701 21.5901L9.15 21.59V23.11H10.67L10.6701 21.5901Z" fill="#000001"/>
<path d="M10.67 9.4H9.15V10.92H10.67V9.4Z" fill="#000001"/>
<path d="M9.15 20.06H7.62V21.59H9.15V20.06Z" fill="#000001"/>
<path d="M9.15 10.92H7.62V12.44H9.15V10.92Z" fill="#000001"/>
<path d="M6.1 32.25V30.73H7.62V29.21H9.15V27.68H7.62V26.16H6.1V24.63H4.58V26.16H3.05V27.68H1.53V29.21H3.05V30.73H4.58V32.25H6.1ZM4.58 27.68H6.1V29.21H4.58V27.68Z" fill="#000001"/>
<path d="M3.05 20.06H1.53V21.59H3.05V20.06Z" fill="#000001"/>
<path d="M3.05 13.97H1.53V15.49H3.05V13.97Z" fill="#000001"/>
<path d="M1.53 9.4H3.05V10.92H4.58V9.4H6.1V7.87H7.62V6.35H6.1V4.82H4.58V3.3H3.05V4.82H1.53V6.35H0V7.87H1.53V9.4ZM3.05 6.35H4.58V7.87H3.05V6.35Z" fill="#000001"/>
</svg>
