<svg width="32" height="32" viewBox="0 0 32 32" fill="none" xmlns="http://www.w3.org/2000/svg">
<g clip-path="url(#clip0_194_751)">
<path d="M32 12.1899H30.48V19.8099H32V12.1899Z" fill="#050523"/>
<path d="M30.4799 19.8101H28.95V22.8601H30.4799V19.8101Z" fill="#050523"/>
<path d="M30.4799 9.14014H28.95V12.1901H30.4799V9.14014Z" fill="#050523"/>
<path d="M28.9501 22.8599H27.4301V25.8999H28.9501V22.8599Z" fill="#050523"/>
<path d="M28.9501 6.08984H27.4301V9.13984H28.9501V6.08984Z" fill="#050523"/>
<path d="M27.43 25.8999H25.9V27.4299H27.43V25.8999Z" fill="#050523"/>
<path d="M27.43 4.56982H25.9V6.08982H27.43V4.56982Z" fill="#050523"/>
<path d="M25.9 27.4302H22.86V28.9502H25.9V27.4302Z" fill="#050523"/>
<path d="M24.38 12.1901H22.86V10.6701H13.71V7.62012H12.19V9.14012H10.67V10.6701H9.13997V12.1901H7.61997V13.7101H6.08997V15.2401H7.61997V16.7601H9.13997V18.2901H10.67V19.8101H12.19V21.3301H13.71V18.2901H19.81V19.8101H21.33V21.3301H19.81V22.8601H18.29V24.3801H21.33V22.8601H24.38V21.3301H25.9V13.7101H24.38V12.1901Z" fill="#050523"/>
<path d="M25.9 3.0498H22.86V4.5698H25.9V3.0498Z" fill="#050523"/>
<path d="M22.8601 28.9502H19.8101V30.4802H22.8601V28.9502Z" fill="#050523"/>
<path d="M22.8601 1.52002H19.8101V3.05002H22.8601V1.52002Z" fill="#050523"/>
<path d="M19.8099 30.48H12.1899V32H19.8099V30.48Z" fill="#050523"/>
<path d="M19.8099 0H12.1899V1.52H19.8099V0Z" fill="#050523"/>
<path d="M12.19 28.9502H9.14001V30.4802H12.19V28.9502Z" fill="#050523"/>
<path d="M12.19 1.52002H9.14001V3.05002H12.19V1.52002Z" fill="#050523"/>
<path d="M9.13997 27.4302H6.08997V28.9502H9.13997V27.4302Z" fill="#050523"/>
<path d="M9.13997 3.0498H6.08997V4.5698H9.13997V3.0498Z" fill="#050523"/>
<path d="M6.08995 25.8999H4.56995V27.4299H6.08995V25.8999Z" fill="#050523"/>
<path d="M6.08995 4.56982H4.56995V6.08982H6.08995V4.56982Z" fill="#050523"/>
<path d="M4.57005 22.8599H3.05005V25.8999H4.57005V22.8599Z" fill="#050523"/>
<path d="M4.57005 6.08984H3.05005V9.13984H4.57005V6.08984Z" fill="#050523"/>
<path d="M3.05002 19.8101H1.52002V22.8601H3.05002V19.8101Z" fill="#050523"/>
<path d="M3.05002 9.14014H1.52002V12.1901H3.05002V9.14014Z" fill="#050523"/>
<path d="M1.52 12.1899H0V19.8099H1.52V12.1899Z" fill="#050523"/>
</g>
<defs>
<clipPath id="clip0_194_751">
<rect width="32" height="32" fill="white"/>
</clipPath>
</defs>
</svg>
