<svg width="22" height="22" viewBox="0 0 22 22" fill="none" xmlns="http://www.w3.org/2000/svg">
<path d="M22 1.05187H20.955V20.955H22V1.05187Z" fill="#050523"/>
<path d="M20.955 20.955L1.045 20.955V22H20.955V20.955Z" fill="#050523"/>
<path d="M18.8581 16.7681H17.8062V17.8131H18.8581V16.7681Z" fill="#050523"/>
<path d="M2.09687 2.09687V13.6194H19.9031V2.09687H2.09687ZM18.8581 12.5744H3.14188V3.14875H18.8581V12.5744Z" fill="#050523"/>
<path d="M17.8062 17.8131L16.7612 17.8131V18.8581H17.8062V17.8131Z" fill="#050523"/>
<path d="M17.8062 15.7163H16.7612V16.7681H17.8062V15.7163Z" fill="#050523"/>
<path d="M16.7612 8.38062H17.8062V7.33563H16.7612V6.29062H15.7163V9.4325H14.6644V10.4775H16.7612V8.38062Z" fill="#050523"/>
<path d="M15.7163 15.7163H14.6644V18.8581H15.7163V15.7163Z" fill="#050523"/>
<path d="M12.5744 6.29062H11.5225V7.33563H13.6194V4.19375H10.4775V5.23875H12.5744V6.29062Z" fill="#050523"/>
<path d="M11.5225 15.7163H10.4775V14.6713H9.42562V19.91H10.4775V18.8581H11.5225V17.8131H12.5744V16.7681H11.5225V15.7163Z" fill="#050523"/>
<path d="M10.4775 5.23875H9.42562V7.33563H8.38062V8.38062H10.4775V5.23875Z" fill="#050523"/>
<path d="M7.33562 15.7163H6.28375V18.8581H7.33562V15.7163Z" fill="#050523"/>
<path d="M6.28375 6.29062H5.23875V9.4325H4.19375V10.4775H6.28375V6.29062Z" fill="#050523"/>
<path d="M5.23875 17.8131H4.19375V18.8581H5.23875V17.8131Z" fill="#050523"/>
<path d="M5.23875 15.7163H4.19375V16.7681H5.23875V15.7163Z" fill="#050523"/>
<path d="M4.19375 16.7681H3.14188V17.8131L4.19375 17.8131V16.7681Z" fill="#050523"/>
<path d="M20.955 0H1.045V1.05187H20.955V0Z" fill="#050523"/>
<path d="M1.045 1.05187H0V20.955L1.045 20.955V1.05187Z" fill="#050523"/>
</svg>
