<svg width="41" height="41" viewBox="0 0 41 41" fill="none" xmlns="http://www.w3.org/2000/svg">
<g clip-path="url(#clip0_427_1552)">
<path d="M33.45 12.1201V13.6401H34.9799V15.1701H33.45V16.6901H36.5V12.1201H33.45Z" fill="#27275C"/>
<path d="M34.9799 18.21H33.45V19.74H34.9799V18.21Z" fill="#27275C"/>
<path d="M34.9799 9.06982H33.45V10.5898H34.9799V9.06982Z" fill="#27275C"/>
<path d="M33.4501 19.7402H31.9301V21.2602H33.4501V19.7402Z" fill="#27275C"/>
<path d="M33.4501 16.6899H31.9301V18.2099H33.4501V16.6899Z" fill="#27275C"/>
<path d="M33.4501 10.5898H31.9301V12.1198H33.4501V10.5898Z" fill="#27275C"/>
<path d="M33.4501 7.5498H31.9301V9.06981H33.4501V7.5498Z" fill="#27275C"/>
<path d="M31.93 21.2598H30.41V22.7798H31.93V21.2598Z" fill="#27275C"/>
<path d="M31.93 6.02002H30.41V7.55002H31.93V6.02002Z" fill="#27275C"/>
<path d="M30.41 19.7402H28.88V21.2602H30.41V19.7402Z" fill="#27275C"/>
<path d="M30.41 7.5498H28.88V9.06981H30.41V7.5498Z" fill="#27275C"/>
<path d="M24.3101 4.5V7.55H25.8401V6.02H27.3601V7.55H28.8801V4.5H24.3101Z" fill="#27275C"/>
<path d="M27.36 30.3999H25.84V31.9299H27.36V30.3999Z" fill="#27275C"/>
<path d="M24.3101 21.2598V22.7798H27.3601V25.8298H24.3101V27.3598H28.8801V21.2598H24.3101Z" fill="#27275C"/>
<path d="M25.8401 31.9302H24.3101V33.4502H25.8401V31.9302Z" fill="#27275C"/>
<path d="M25.8401 28.8799H24.3101V30.3999H25.8401V28.8799Z" fill="#27275C"/>
<path d="M25.8401 18.21H24.3101V19.74H25.8401V18.21Z" fill="#27275C"/>
<path d="M24.31 16.6898H25.84V18.2098H28.88V16.6898H30.41V12.1198H28.88V13.6398H27.36V12.1198H28.88V10.5898H24.31V12.1198H22.79V15.1698H24.31V16.6898Z" fill="#27275C"/>
<path d="M24.31 33.4502H22.79V34.9802H24.31V33.4502Z" fill="#27275C"/>
<path d="M24.31 27.3599H22.79V28.8799H24.31V27.3599Z" fill="#27275C"/>
<path d="M24.31 19.7402H22.79V21.2602H24.31V19.7402Z" fill="#27275C"/>
<path d="M24.31 7.5498H22.79V9.06981H24.31V7.5498Z" fill="#27275C"/>
<path d="M22.79 31.9302H21.26V33.4502H22.79V31.9302Z" fill="#27275C"/>
<path d="M22.79 15.1699H21.26V16.6899H22.79V15.1699Z" fill="#27275C"/>
<path d="M22.79 6.02002H21.26V7.55002H22.79V6.02002Z" fill="#27275C"/>
<path d="M21.26 30.3999H19.74V31.9299H21.26V30.3999Z" fill="#27275C"/>
<path d="M21.26 22.7798H19.74V25.8298H21.26V22.7798Z" fill="#27275C"/>
<path d="M21.26 16.6899H19.74V18.2099H21.26V16.6899Z" fill="#27275C"/>
<path d="M21.26 7.5498H19.74V9.06981H21.26V7.5498Z" fill="#27275C"/>
<path d="M18.22 34.9802H15.17V31.9302H13.65V36.5002H19.74V31.9302H18.22V34.9802Z" fill="#27275C"/>
<path d="M19.74 25.8301H18.22V27.3601H19.74V25.8301Z" fill="#27275C"/>
<path d="M19.74 21.2598H18.22V22.7798H19.74V21.2598Z" fill="#27275C"/>
<path d="M19.74 9.06982H18.22V10.5898H19.74V9.06982Z" fill="#27275C"/>
<path d="M18.22 19.7402H15.17V21.2602H18.22V19.7402Z" fill="#27275C"/>
<path d="M18.22 27.3599H15.17V28.8799H18.22V27.3599Z" fill="#27275C"/>
<path d="M15.17 25.8301H13.65V27.3601H15.17V25.8301Z" fill="#27275C"/>
<path d="M15.17 21.2598H13.65V22.7798H15.17V21.2598Z" fill="#27275C"/>
<path d="M15.17 13.6401H18.22V16.6901H19.74V12.1201H13.65V16.6901H15.17V13.6401Z" fill="#27275C"/>
<path d="M13.65 30.3999H12.12V31.9299H13.65V30.3999Z" fill="#27275C"/>
<path d="M13.65 22.7798H12.12V25.8298H13.65V22.7798Z" fill="#27275C"/>
<path d="M13.65 16.6899H12.12V18.2099H13.65V16.6899Z" fill="#27275C"/>
<path d="M12.12 31.9302H10.6V33.4502H12.12V31.9302Z" fill="#27275C"/>
<path d="M12.12 15.1699H10.6V16.6899H12.12V15.1699Z" fill="#27275C"/>
<path d="M10.5999 33.4502H9.06995V34.9802H10.5999V33.4502Z" fill="#27275C"/>
<path d="M10.5999 27.3599H9.06995V28.8799H10.5999V27.3599Z" fill="#27275C"/>
<path d="M10.5999 19.7402H9.06995V21.2602H10.5999V19.7402Z" fill="#27275C"/>
<path d="M10.5999 13.6401H9.06995V15.1701H10.5999V13.6401Z" fill="#27275C"/>
<path d="M9.07005 31.9302H7.55005V33.4502H9.07005V31.9302Z" fill="#27275C"/>
<path d="M9.07005 28.8799H7.55005V30.3999H9.07005V28.8799Z" fill="#27275C"/>
<path d="M6.03 25.8298V22.7798H9.07V21.2598H4.5V27.3598H9.07V25.8298H6.03Z" fill="#27275C"/>
<path d="M9.07005 18.21H7.55005V19.74H9.07005V18.21Z" fill="#27275C"/>
<path d="M9.07005 15.1699H7.55005V16.6899H9.07005V15.1699Z" fill="#27275C"/>
<path d="M7.55003 30.3999H6.03003V31.9299H7.55003V30.3999Z" fill="#27275C"/>
<path d="M7.55003 16.6899H6.03003V18.2099H7.55003V16.6899Z" fill="#27275C"/>
</g>
<defs>
<clipPath id="clip0_427_1552">
<rect width="32" height="32" fill="white" transform="translate(4.5 4.5)"/>
</clipPath>
</defs>
</svg>
