<svg width="20" height="20" viewBox="0 0 20 20" fill="none" xmlns="http://www.w3.org/2000/svg">
<path d="M17.3068 10.4775V6.29062H16.3478V4.19375H10.5746V3.14188H11.54V1.05187H10.5746V0H6.73218V1.05187H5.77314V3.14188H6.73218V4.19375H2.88342V5.23875H13.4644V9.4325H14.4234V12.5744H15.3824V18.8581H0.965345V19.91H16.3478V18.8581H17.3068V17.8131H18.2658V16.7612H19.2312V13.6194H18.2658V10.4775H17.3068ZM9.6156 3.14188H7.69122V1.05187H9.6156V3.14188Z" fill="#050523"/>
<path d="M10.5746 12.5744H11.54V13.6194H12.499V11.5225H10.5746V12.5744Z" fill="#050523"/>
<path d="M11.54 9.4325H9.6156V10.4775H11.54V9.4325Z" fill="#050523"/>
<path d="M11.54 13.6194H9.6156V14.6712H11.54L11.54 13.6194Z" fill="#050523"/>
<path d="M9.6156 10.4775H8.65656V13.6194H9.6156V10.4775Z" fill="#050523"/>
<path d="M7.69122 13.6194H6.73218V14.6712H7.69122V13.6194Z" fill="#050523"/>
<path d="M7.69122 9.4325H6.73218V10.4775H7.69122V9.4325Z" fill="#050523"/>
<path d="M6.73218 12.5744H5.77314V13.6194H6.73218L6.73218 12.5744Z" fill="#050523"/>
<path d="M6.73218 10.4775H5.77314V11.5225H6.73218L6.73218 10.4775Z" fill="#050523"/>
<path d="M4.8078 9.4325H3.84876V14.6713H4.8078V12.5744H5.77314V11.5225H4.8078V9.4325Z" fill="#050523"/>
<path d="M2.88342 5.23875H1.92438V9.4325H2.88342V5.23875Z" fill="#050523"/>
<path d="M1.92438 9.4325H0.965345V12.5744H1.92438V9.4325Z" fill="#050523"/>
<path d="M0.965345 12.5744H0V18.8581H0.965345V12.5744Z" fill="#050523"/>
</svg>
