<svg width="22" height="22" viewBox="0 0 22 22" fill="none" xmlns="http://www.w3.org/2000/svg">
<path d="M8.9065 0V1.045H6.80963V2.09687H8.9065V3.14188H9.9515V2.09687H12.0484V3.14188H13.0934V2.09687H15.1903V3.14188H16.2421V2.09687H17.2871V4.19375H18.3321V3.14188H19.384V20.955H7.8615V22H20.429V20.955H21.474V3.14188H20.429V2.09687H19.384V1.045H16.2421V0H15.1903V1.045H13.0934V0H12.0484V1.045H9.9515V0H8.9065Z" fill="#050523"/>
<path d="M17.2871 4.19375H16.2421V6.28375H17.2871L17.2871 4.19375Z" fill="#050523"/>
<path d="M15.1903 8.38062H18.3321V7.33562H16.2421V6.28375L15.1903 6.28375V8.38062Z" fill="#050523"/>
<path d="M14.1453 10.4775H13.0934V12.5744H14.1453V11.5225H18.3321V10.4775H15.1903L15.1903 8.38062H14.1453V10.4775Z" fill="#050523"/>
<path d="M12.0484 14.6644H18.3321V13.6194H13.0934V12.5744L12.0484 12.5744V14.6644Z" fill="#050523"/>
<path d="M12.0484 8.38062H11.0034V9.4325H12.0484V8.38062Z" fill="#050523"/>
<path d="M12.0484 6.28375H11.0034V7.33562H12.0484V6.28375Z" fill="#050523"/>
<path d="M18.3321 16.7612H8.9065V17.8131H18.3321V16.7612Z" fill="#050523"/>
<path d="M11.0034 9.4325H7.8615V10.4775H11.0034V9.4325Z" fill="#050523"/>
<path d="M8.9065 6.28375H7.8615V7.33562H8.9065V6.28375Z" fill="#050523"/>
<path d="M7.8615 15.7163H12.0484V14.6644L1.57088 14.6644V15.7163H6.80963V20.955H7.8615L7.8615 15.7163Z" fill="#050523"/>
<path d="M7.8615 8.38062H6.80963V9.4325H7.8615V8.38062Z" fill="#050523"/>
<path d="M6.80963 2.09687H5.76463V4.19375H6.80963L6.80963 2.09687Z" fill="#050523"/>
<path d="M5.76463 4.19375H4.71275V6.28375H5.76463L5.76463 4.19375Z" fill="#050523"/>
<path d="M4.71275 6.28375L3.66775 6.28375V8.38062H4.71275V6.28375Z" fill="#050523"/>
<path d="M3.66775 8.38062H2.62275V10.4775H3.66775L3.66775 8.38062Z" fill="#050523"/>
<path d="M2.62275 10.4775H1.57088V12.5744H2.62275V10.4775Z" fill="#050523"/>
<path d="M1.57088 12.5744H0.525879V14.6644L1.57088 14.6644V12.5744Z" fill="#050523"/>
</svg>
