<svg width="40" height="40" viewBox="0 0 40 40" fill="none" xmlns="http://www.w3.org/2000/svg">
<path d="M23.81 32.1851H11.62V33.7151H23.81V32.1851Z" fill="#27275C"/>
<path d="M11.62 30.665H10.1V32.185H11.62V30.665Z" fill="#27275C"/>
<path d="M10.1 24.5651H14.67V23.0451H13.15V21.5251H11.62V19.9951H10.1V18.4751H8.58V19.9951H7.05V21.5251H5.53V23.0451H4V24.5651H8.58V30.6651H10.1V24.5651Z" fill="#27275C"/>
<path d="M31.43 15.425V9.33496H29.91V15.425H25.34V16.945H26.86V18.475H28.39V19.995H29.91V21.525H31.43V19.995H32.96V18.475H34.48V16.945H36V15.425H31.43Z" fill="#27275C"/>
<path d="M29.91 7.80518H28.39V9.33518H29.91V7.80518Z" fill="#27275C"/>
<path d="M28.3899 6.28516H16.1899V7.80516H28.3899V6.28516Z" fill="#27275C"/>
</svg>
