<svg width="30" height="30" viewBox="0 0 30 30" fill="none" xmlns="http://www.w3.org/2000/svg">
<path d="M29.4749 14.2349H27.9549V15.7649H29.4749V14.2349Z" fill="#000001"/>
<path d="M27.9549 15.7649H26.4249V17.2849H27.9549V15.7649Z" fill="#000001"/>
<path d="M27.9549 12.7149H26.4249V14.2349H27.9549V12.7149Z" fill="#000001"/>
<path d="M26.4249 17.2849H24.9049V18.8149H26.4249V17.2849Z" fill="#000001"/>
<path d="M26.4249 11.1949H24.9049V12.7149H26.4249V11.1949Z" fill="#000001"/>
<path d="M23.3849 23.3849H18.8149V24.9049H24.9049V18.8149H23.3849V23.3849Z" fill="#000001"/>
<path d="M23.3849 6.6249V11.1949H24.9049V5.0949H18.8149V6.6249H23.3849Z" fill="#000001"/>
<path d="M18.8149 24.9049H17.2849V26.4349H18.8149V24.9049Z" fill="#000001"/>
<path d="M18.8149 3.5749H17.2849V5.0949H18.8149V3.5749Z" fill="#000001"/>
<path d="M17.2849 26.4349H15.7649V27.9549H17.2849V26.4349Z" fill="#000001"/>
<path d="M17.2849 2.0449H15.7649V3.5749H17.2849V2.0449Z" fill="#000001"/>
<path d="M15.7649 27.9549H14.2349V29.4749H15.7649V27.9549Z" fill="#000001"/>
<path d="M15.7649 0.524902H14.2349V2.0449H15.7649V0.524902Z" fill="#000001"/>
<path d="M14.2349 26.4349H12.7149V27.9549H14.2349V26.4349Z" fill="#000001"/>
<path d="M14.2349 2.0449H12.7149V3.5749H14.2349V2.0449Z" fill="#000001"/>
<path d="M12.7149 24.9049H11.1949V26.4349H12.7149V24.9049Z" fill="#000001"/>
<path d="M12.7149 3.5749H11.1949V5.0949H12.7149V3.5749Z" fill="#000001"/>
<path d="M6.6249 23.3849V18.8149H5.0949V24.9049H11.1949V23.3849H6.6249Z" fill="#000001"/>
<path d="M6.6249 6.6249H11.1949V5.0949H5.0949V11.1949H6.6249V6.6249Z" fill="#000001"/>
<path d="M5.0949 17.2849H3.5749V18.8149H5.0949V17.2849Z" fill="#000001"/>
<path d="M5.0949 11.1949H3.5749V12.7149H5.0949V11.1949Z" fill="#000001"/>
<path d="M3.5749 15.7649H2.0449V17.2849H3.5749V15.7649Z" fill="#000001"/>
<path d="M3.5749 12.7149H2.0449V14.2349H3.5749V12.7149Z" fill="#000001"/>
<path d="M2.0449 14.2349H0.524902V15.7649H2.0449V14.2349Z" fill="#000001"/>
</svg>
