<svg width="32" height="32" viewBox="0 0 32 32" fill="none" xmlns="http://www.w3.org/2000/svg">
<path d="M32 12.19H30.48V13.71H32V12.19Z" fill="#000001"/>
<path d="M30.48 13.71H28.95V15.23H30.48V13.71Z" fill="#000001"/>
<path d="M28.95 27.43H27.43V30.47H28.95V27.43Z" fill="#000001"/>
<path d="M27.43 24.38H25.9V27.43H27.43V24.38Z" fill="#000001"/>
<path d="M28.95 15.23H25.9V16.76H28.95V15.23Z" fill="#000001"/>
<path d="M27.43 30.47H24.38V32H27.43V30.47Z" fill="#000001"/>
<path d="M25.9 21.33H24.38V24.38H25.9V21.33Z" fill="#000001"/>
<path d="M25.9 16.76H24.38V18.28H25.9V16.76Z" fill="#000001"/>
<path d="M24.38 28.95H22.86V30.47H24.38V28.95Z" fill="#000001"/>
<path d="M24.38 18.28H22.86V21.33H24.38V18.28Z" fill="#000001"/>
<path d="M22.86 27.43H19.81V28.95H22.86V27.43Z" fill="#000001"/>
<path d="M30.48 10.66H21.33V12.19H30.48V10.66Z" fill="#000001"/>
<path d="M21.33 7.62H19.81V10.66H21.33V7.62Z" fill="#000001"/>
<path d="M19.81 25.9H18.29V27.43H19.81V25.9Z" fill="#000001"/>
<path d="M19.81 4.57H18.29V7.62H19.81V4.57Z" fill="#000001"/>
<path d="M18.29 24.38H16.76V25.9H18.29V24.38Z" fill="#000001"/>
<path d="M18.29 1.52H16.76V4.57H18.29V1.52Z" fill="#000001"/>
<path d="M16.76 22.85H15.24V24.38H16.76V22.85Z" fill="#000001"/>
<path d="M16.76 0H15.24V1.52H16.76V0Z" fill="#000001"/>
<path d="M15.24 24.38H13.71V25.9H15.24V24.38Z" fill="#000001"/>
<path d="M15.24 1.52H13.71V4.57H15.24V1.52Z" fill="#000001"/>
<path d="M13.71 25.9H12.19V27.43H13.71V25.9Z" fill="#000001"/>
<path d="M13.71 4.57H12.19V7.62H13.71V4.57Z" fill="#000001"/>
<path d="M12.19 7.62H10.67V10.66H12.19V7.62Z" fill="#000001"/>
<path d="M12.19 27.43H9.14V28.95H12.19V27.43Z" fill="#000001"/>
<path d="M9.14 28.95H7.62V30.47H9.14V28.95Z" fill="#000001"/>
<path d="M9.14 18.28H7.62V21.33H9.14V18.28Z" fill="#000001"/>
<path d="M7.62 21.33H6.1V24.38H7.62V21.33Z" fill="#000001"/>
<path d="M7.62 16.76H6.1V18.28H7.62V16.76Z" fill="#000001"/>
<path d="M7.62 30.47H4.57V32H7.62V30.47Z" fill="#000001"/>
<path d="M6.1 24.38H4.57V27.43H6.1V24.38Z" fill="#000001"/>
<path d="M6.1 15.23H3.05V16.76H6.1V15.23Z" fill="#000001"/>
<path d="M4.57 27.43H3.05V30.47H4.57V27.43Z" fill="#000001"/>
<path d="M10.67 10.66H1.52V12.19H10.67V10.66Z" fill="#000001"/>
<path d="M3.05 13.71H1.52V15.23H3.05V13.71Z" fill="#000001"/>
<path d="M1.52 12.19H0V13.71H1.52V12.19Z" fill="#000001"/>
</svg>
