<svg width="22" height="22" viewBox="0 0 22 22" fill="none" xmlns="http://www.w3.org/2000/svg">
<path d="M22 8.38062H20.9481V13.6194H22V8.38062Z" fill="#050523"/>
<path d="M20.9481 13.6194L19.9031 13.6194V15.7162H20.9481V13.6194Z" fill="#050523"/>
<path d="M20.9481 6.28375H19.9031V8.38062H20.9481V6.28375Z" fill="#050523"/>
<path d="M19.9031 15.7162L18.8581 15.7163V17.8062H19.9031V15.7162Z" fill="#050523"/>
<path d="M19.9031 4.19375H18.8581V6.28375L19.9031 6.28375V4.19375Z" fill="#050523"/>
<path d="M18.8581 17.8062H17.8062V18.8581H18.8581V17.8062Z" fill="#050523"/>
<path d="M18.8581 3.14188H17.8062V4.19375H18.8581V3.14188Z" fill="#050523"/>
<path d="M17.8062 18.8581H15.7094V19.9031H17.8062V18.8581Z" fill="#050523"/>
<path d="M17.8062 2.09687H15.7094V3.14188L17.8062 3.14188V2.09687Z" fill="#050523"/>
<path d="M9.42562 12.5744H10.4775V13.6194H11.5225V12.5744H12.5675V11.5225H16.7612V10.4775H12.5675V9.42562H11.5225V3.14188H10.4775V9.42562H9.42562V10.4775H8.38062V11.5225H9.42562V12.5744Z" fill="#050523"/>
<path d="M15.7094 19.9031H13.6194V20.955H15.7094V19.9031Z" fill="#050523"/>
<path d="M15.7094 1.045H13.6194V2.09687H15.7094V1.045Z" fill="#050523"/>
<path d="M13.6194 20.955H8.38062V22H13.6194L13.6194 20.955Z" fill="#050523"/>
<path d="M13.6194 0H8.38062V1.045H13.6194L13.6194 0Z" fill="#050523"/>
<path d="M8.38062 19.9031H6.28375V20.955H8.38062V19.9031Z" fill="#050523"/>
<path d="M8.38062 1.045H6.28375V2.09687H8.38062V1.045Z" fill="#050523"/>
<path d="M6.28375 18.8581H4.18688V19.9031H6.28375L6.28375 18.8581Z" fill="#050523"/>
<path d="M6.28375 2.09687H4.18688V3.14188H6.28375L6.28375 2.09687Z" fill="#050523"/>
<path d="M4.18687 17.8062H3.14188V18.8581H4.18688L4.18687 17.8062Z" fill="#050523"/>
<path d="M4.18688 3.14188L3.14188 3.14188V4.19375H4.18687L4.18688 3.14188Z" fill="#050523"/>
<path d="M3.14188 15.7163H2.09687V17.8062H3.14188L3.14188 15.7163Z" fill="#050523"/>
<path d="M3.14188 4.19375H2.09687V6.28375H3.14188L3.14188 4.19375Z" fill="#050523"/>
<path d="M2.09687 13.6194H1.045V15.7162L2.09687 15.7163V13.6194Z" fill="#050523"/>
<path d="M2.09687 6.28375L1.045 6.28375V8.38062H2.09687V6.28375Z" fill="#050523"/>
<path d="M1.045 8.38062H0V13.6194L1.045 13.6194V8.38062Z" fill="#050523"/>
</svg>
